<?xml version="1.0" encoding="utf-8"?>
<!-- Generator: Adobe Illustrator 22.0.1, SVG Export Plug-In . SVG Version: 6.00 Build 0)  -->
<svg version="1.1" id="Layer_1" xmlns="http://www.w3.org/2000/svg" xmlns:xlink="http://www.w3.org/1999/xlink" x="0px" y="0px"
	 viewBox="0 0 147.4 38" enable-background="new 0 0 147.4 38" xml:space="preserve">
<path id="BisLite" d="M14.6,37.6c2,0,3.9-0.3,5.8-0.8c1.6-0.5,3-1.3,4.3-2.3c1.1-1,2-2.1,2.6-3.5c0.6-1.4,0.9-2.8,0.9-4.3
	c0.1-1.8-0.5-3.6-1.7-5c-1.4-1.5-3.3-2.5-5.3-2.8c1-0.3,1.9-0.8,2.8-1.4c0.7-0.5,1.4-1.1,1.9-1.8c0.5-0.6,0.9-1.4,1.1-2.1
	c0.2-0.8,0.4-1.6,0.4-2.4c0-1.4-0.2-2.8-0.8-4.1c-0.5-1.2-1.4-2.3-2.4-3.1c-1.3-0.9-2.8-1.6-4.3-2c-2.1-0.5-4.3-0.7-6.4-0.7H0v36.4
	H14.6z M14.4,22.1c0.9,0,1.8,0.1,2.6,0.3c0.6,0.2,1.2,0.4,1.7,0.8c0.4,0.4,0.7,0.8,0.9,1.3c0.2,0.6,0.3,1.2,0.3,1.8
	c0,0.6-0.1,1.2-0.2,1.7c-0.2,0.6-0.4,1.1-0.8,1.5c-0.5,0.5-1,0.9-1.7,1.1c-0.9,0.3-1.8,0.5-2.7,0.4H8.4v-9.1H14.4L14.4,22.1z
	 M8.5,7.5h4.9c0.8,0,1.7,0.1,2.5,0.2c0.6,0.1,1.2,0.4,1.7,0.7c0.5,0.4,0.8,0.8,1,1.4c0.2,0.7,0.3,1.4,0.3,2.2c0,0.8-0.1,1.5-0.4,2.2
	c-0.3,0.6-0.7,1-1.2,1.4c-0.6,0.4-1.2,0.6-1.9,0.7c-0.8,0.1-1.7,0.2-2.5,0.2H8.5L8.5,7.5L8.5,7.5z M33.1,11.7v25.9h7.8V11.7H33.1z
	 M41.3,2.8c-0.2-0.5-0.6-1-1-1.5c-0.4-0.4-1-0.7-1.5-1C38.2,0.1,37.6,0,37,0c-0.6,0-1.2,0.1-1.8,0.3c-0.5,0.2-1,0.6-1.5,1
	c-0.4,0.4-0.8,0.9-1,1.5c-0.2,0.6-0.4,1.2-0.4,1.8c0,0.6,0.1,1.2,0.4,1.7c0.2,0.5,0.6,1,1,1.4c0.4,0.4,0.9,0.7,1.5,1
	c0.6,0.2,1.2,0.4,1.8,0.4c0.6,0,1.3-0.1,1.8-0.4c0.6-0.2,1.1-0.6,1.5-1c0.4-0.4,0.8-0.9,1-1.4c0.3-0.5,0.4-1.1,0.4-1.7
	C41.7,3.9,41.6,3.3,41.3,2.8L41.3,2.8z M64.6,14.6c-0.5-0.5-1.1-1-1.7-1.3c-0.7-0.4-1.4-0.8-2.1-1.1c-0.8-0.3-1.6-0.5-2.5-0.7
	c-0.9-0.2-1.8-0.3-2.7-0.3c-1.5,0-3,0.2-4.5,0.7c-1.2,0.4-2.3,1-3.2,1.8c-0.8,0.7-1.5,1.6-1.9,2.6c-0.4,1-0.6,2.1-0.6,3.1
	c0,1,0.2,2.1,0.5,3c0.3,0.8,0.8,1.5,1.4,2.1c0.6,0.6,1.2,1.1,1.9,1.4c0.7,0.4,1.5,0.7,2.2,1c0.8,0.3,1.5,0.5,2.2,0.7
	c0.7,0.2,1.3,0.4,1.9,0.7c0.5,0.2,1,0.5,1.4,0.9c0.3,0.3,0.5,0.8,0.5,1.3c0,0.6-0.3,1.2-0.7,1.6c-0.3,0.2-0.6,0.4-1,0.5
	c-0.5,0.1-1,0.2-1.5,0.2c-0.7,0-1.4-0.1-2.1-0.3c-0.5-0.2-1-0.4-1.5-0.7l-1.2-0.7c-0.4-0.2-0.8-0.3-1.2-0.3c-0.4,0-0.8,0.1-1.2,0.3
	c-0.3,0.2-0.6,0.5-0.8,0.8l-1.8,2.8c0.6,0.5,1.2,0.9,1.8,1.3c0.7,0.4,1.5,0.7,2.3,1c0.8,0.3,1.7,0.5,2.6,0.7
	c0.9,0.2,1.8,0.2,2.6,0.3c1.6,0,3.2-0.2,4.7-0.7c1.3-0.4,2.4-1,3.4-1.8c0.9-0.8,1.6-1.7,2.1-2.8c0.5-1.1,0.7-2.3,0.7-3.6
	c0-0.9-0.2-1.8-0.5-2.7c-0.3-0.7-0.8-1.4-1.4-1.9c-0.6-0.5-1.2-1-1.9-1.3c-0.7-0.4-1.4-0.7-2.2-0.9c-0.8-0.3-1.5-0.5-2.2-0.7
	c-0.7-0.2-1.3-0.4-1.9-0.7c-0.5-0.2-1-0.5-1.4-0.8c-0.3-0.3-0.5-0.7-0.5-1.2c0-0.6,0.3-1.2,0.8-1.6c0.7-0.4,1.5-0.6,2.3-0.6
	c0.6,0,1.2,0.1,1.8,0.2c0.5,0.1,1,0.3,1.4,0.5l1.2,0.5c0.3,0.2,0.7,0.2,1.1,0.2c0.3,0,0.6-0.1,0.9-0.2c0.3-0.2,0.5-0.4,0.6-0.7
	L64.6,14.6z"/>
<path id="BisLite_1_" fill="#2AACC8" d="M75.2,1.7h-4.8v35.8h20.4v-4.1H75.2L75.2,1.7L75.2,1.7z M95.9,12.2v25.3h4.5V12.2L95.9,12.2
	L95.9,12.2z M101.1,3.1c-0.2-0.4-0.4-0.7-0.7-1c-0.3-0.3-0.6-0.5-1-0.7c-0.4-0.2-0.8-0.3-1.2-0.3c-0.4,0-0.8,0.1-1.2,0.3
	c-0.4,0.2-0.7,0.4-1,0.7c-0.3,0.3-0.5,0.6-0.7,1C95.1,3.4,95,3.9,95,4.3c0,0.4,0.1,0.8,0.3,1.2c0.3,0.8,0.9,1.4,1.7,1.7
	c0.4,0.2,0.8,0.3,1.2,0.3c0.4,0,0.8-0.1,1.2-0.3c0.4-0.2,0.7-0.4,1-0.7c0.3-0.3,0.5-0.6,0.7-1C101.3,5.1,101.3,3.4,101.1,3.1
	L101.1,3.1z M119.2,37.4c1-0.4,2-0.9,2.8-1.7l-1.3-2.1c-0.1-0.2-0.4-0.4-0.6-0.4c-0.2,0-0.3,0.1-0.5,0.2c-0.2,0.1-0.4,0.3-0.6,0.4
	c-0.3,0.2-0.6,0.3-0.9,0.4c-0.4,0.1-0.8,0.2-1.2,0.2c-0.7,0-1.5-0.3-2-0.8c-0.6-0.7-0.8-1.5-0.8-2.4V16h7.3v-3.2h-7.3V4h-2.3
	c-0.3,0-0.5,0.1-0.7,0.2c-0.2,0.2-0.3,0.4-0.3,0.6l-1,7.8l-4.1,0.5V15c0,0.3,0.1,0.5,0.3,0.7c0.2,0.2,0.4,0.2,0.7,0.2h3v15.5
	c-0.1,1.8,0.5,3.5,1.6,4.8c1.2,1.2,2.9,1.8,4.6,1.7C117,38,118.1,37.8,119.2,37.4L119.2,37.4z M131.9,12.8c-1.4,0.6-2.7,1.5-3.7,2.7
	c-1,1.2-1.8,2.5-2.3,4c-0.6,1.6-0.8,3.3-0.8,5c0,2,0.3,3.9,0.9,5.8c0.5,1.6,1.4,3,2.5,4.2c1.1,1.1,2.4,2,3.8,2.6
	c1.5,0.6,3.2,0.9,4.8,0.9c0.9,0,1.9-0.1,2.8-0.2c0.9-0.2,1.8-0.4,2.7-0.7c0.9-0.3,1.7-0.7,2.5-1.2c0.7-0.5,1.4-1.1,2-1.7l-1.3-1.6
	c-0.2-0.3-0.5-0.4-0.9-0.4c-0.4,0-0.7,0.2-1,0.4c-0.5,0.3-1,0.6-1.5,0.8c-0.7,0.3-1.4,0.6-2.1,0.8c-0.9,0.3-1.9,0.4-2.9,0.4
	c-1.1,0-2.2-0.2-3.3-0.6c-1-0.4-1.8-1-2.5-1.8c-0.7-0.9-1.3-1.9-1.6-3c-0.4-1.4-0.6-2.8-0.6-4.2h16.9c0.3,0,0.6-0.1,0.9-0.3
	c0.2-0.4,0.3-0.9,0.2-1.4c0-1.6-0.2-3.3-0.8-4.8c-0.5-1.3-1.2-2.5-2.2-3.5c-0.9-1-2.1-1.7-3.3-2.2c-1.3-0.5-2.8-0.8-4.2-0.8
	C135.2,11.8,133.5,12.1,131.9,12.8L131.9,12.8z M139.7,15.6c0.8,0.3,1.5,0.8,2,1.5c0.6,0.6,1,1.4,1.3,2.2c0.3,0.9,0.4,1.9,0.4,2.8
	h-13.8c0.2-1.9,1-3.7,2.3-5.2C134,15.1,137,14.6,139.7,15.6L139.7,15.6z"/>
</svg>
