<?xml version="1.0" encoding="utf-8"?>
<!-- Generator: Adobe Illustrator 22.0.1, SVG Export Plug-In . SVG Version: 6.00 Build 0)  -->
<svg version="1.1" id="Layer_1" xmlns="http://www.w3.org/2000/svg" xmlns:xlink="http://www.w3.org/1999/xlink" x="0px" y="0px"
	 viewBox="0 0 24 20" enable-background="new 0 0 24 20" xml:space="preserve">
<g>
	<g>
		<path fill="#2AACC8" d="M24,14v-0.9c0-0.9-1.2-1.8-1.2-1.8C20.8,10.6,19.5,9.6,19,9V8.4C19.7,8.5,21,8,20.4,7.7
			C20.2,7.5,20,7.3,19.9,7C19.9,6.8,20,6.6,20,6.4l0-0.3c0,0,0.1,0,0.1,0c0.2,0,0.4-0.2,0.4-0.4V5c0-0.2-0.2-0.4-0.4-0.4
			c0,0,0,0,0,0l0-0.5c0.1-1.4-1-2.6-2.3-2.6c-1.4,0-2.4,1.2-2.3,2.6l0,0.5c0,0,0,0,0,0c-0.2,0-0.4,0.2-0.4,0.4v0.8
			c0,0.2,0.2,0.4,0.4,0.4c0,0,0.1,0,0.1,0l0,0.3c0,0.2,0,0.4,0.1,0.6c-0.1,0.3-0.3,0.6-0.6,0.7C14.5,8,16,8.5,16.7,8.4V9
			c-0.5,0.6-1.7,1.5-3.5,2.2l3.2,2.9H24z M14.6,6.8V5.6C14.6,5.2,14.3,5,14,5c0,0,0,0,0,0c0,0,0,0-0.1,0l0-0.8
			C14.1,1.9,12.4,0,10.2,0C7.9,0,6.2,1.9,6.4,4.2l0,0.8c0,0,0,0-0.1,0C6,5,5.7,5.2,5.7,5.6c0,0,0,0,0,0v1.3c0,0.3,0.3,0.6,0.6,0.6
			c0,0,0,0,0,0c0.1,0,0.1,0,0.2,0l0,0.4C6.6,9,7.3,10,8.2,10.6V12c-0.9,1-2.9,2.6-6.3,3.6c0,0-1.9,1.5-1.9,2.9V20h20.3v-1.5
			c0-1.5-1.9-2.9-1.9-2.9C15,14.6,13,13,12.1,12v-1.4C13,10,13.7,9,13.7,7.9l0-0.4c0.1,0,0.1,0,0.2,0C14.3,7.5,14.6,7.2,14.6,6.8
			C14.6,6.8,14.6,6.8,14.6,6.8z"/>
	</g>
</g>
</svg>
