<?xml version="1.0" encoding="utf-8"?>
<!-- Generator: Adobe Illustrator 22.0.1, SVG Export Plug-In . SVG Version: 6.00 Build 0)  -->
<svg version="1.1" id="Layer_1" xmlns="http://www.w3.org/2000/svg" xmlns:xlink="http://www.w3.org/1999/xlink" x="0px" y="0px"
	 viewBox="0 0 24 23" enable-background="new 0 0 24 23" xml:space="preserve">
<g>
	<g>
		<path fill="#2AACC8" d="M16.7,16.7L9,23l1.7-5.7C4.7,16.8,0,13.2,0,8.7C0,3.9,5.4,0,12,0s12,3.9,12,8.7C24,12.3,21,15.4,16.7,16.7
			L16.7,16.7z M12,1.8c-5.2,0-9.5,3.1-9.5,6.9c0,3.8,4.3,6.9,9.5,6.9c5.2,0,9.5-3.1,9.5-6.9C21.5,4.9,17.2,1.8,12,1.8z M7.5,8.2h9
			v1.5h-9V8.2z M7.5,5.2h9v1.5h-9V5.2z M14.3,12.6H9.8v-1.5h4.5V12.6z"/>
	</g>
</g>
</svg>
