<?xml version="1.0" encoding="utf-8"?>
<!-- Generator: Adobe Illustrator 22.0.1, SVG Export Plug-In . SVG Version: 6.00 Build 0)  -->
<svg version="1.1" id="Layer_1" xmlns="http://www.w3.org/2000/svg" xmlns:xlink="http://www.w3.org/1999/xlink" x="0px" y="0px"
	 viewBox="0 0 29 26" enable-background="new 0 0 29 26" xml:space="preserve">
<g>
	<g>
		<path fill="#2AACC8" d="M29,0.1c-0.5-0.6-2.9,0.8-5.6,3.2c-1.5,1.3-5.7,5.1-9.1,8.1l3.7,3.8c3-3.6,6.7-8.2,8-9.8
			C28.5,2.5,29.3,0.5,29,0.1L29,0.1z M13.5,12.1l-3.3,2.9l4.4,4.3l2.7-3.3L13.5,12.1z M14,20.2l-4.5-4.4c-0.3,0-4.7,0.4-4.7,4.8
			C4.8,25,0,24.4,0,24.4S11.4,30.1,14,20.2L14,20.2C14,20.2,14,20.2,14,20.2z"/>
	</g>
</g>
</svg>
