<?xml version="1.0" encoding="utf-8"?>
<!-- Generator: Adobe Illustrator 22.0.1, SVG Export Plug-In . SVG Version: 6.00 Build 0)  -->
<svg version="1.1" id="Layer_1" xmlns="http://www.w3.org/2000/svg" xmlns:xlink="http://www.w3.org/1999/xlink" x="0px" y="0px"
	 viewBox="0 0 35 25" enable-background="new 0 0 35 25" xml:space="preserve">
<g>
	<g>
		<path fill="#FFFFFF" d="M17.3,0.8c10,0,17.5,11.7,17.5,11.7s-7.5,11.7-17.5,11.7C6.7,24.1,0.2,12.5,0.2,12.5S6.8,0.8,17.3,0.8z
			 M12.2,12.5c0,2.9,2.3,5.2,5.2,5.2s5.2-2.3,5.2-5.2s-2.3-5.2-5.2-5.2S12.2,9.6,12.2,12.5z M17.4,9.9c1.4,0,2.6,1.2,2.6,2.6
			s-1.2,2.6-2.6,2.6c-1.4,0-2.6-1.2-2.6-2.6S16,9.9,17.4,9.9L17.4,9.9z"/>
	</g>
</g>
</svg>
