<svg xmlns="http://www.w3.org/2000/svg"><symbol id="icon-link" viewBox="0 0 20 26">
	<path d="M18.6,4.1l-5.2-3c-1-0.6-2.2-0.2-2.7,0.7L7.2,7.9C6.6,8.8,7,10,7.9,10.6l0.9,0.5l1-1.7
		C9.3,9.1,9.2,8.5,9.4,8l2.5-4.3c0.3-0.5,0.9-0.6,1.4-0.4l3.5,2c0.5,0.3,0.6,0.9,0.4,1.4L14.6,11c-0.3,0.5-0.9,0.6-1.4,0.4l-1,1.7
		l0.9,0.5c1,0.6,2.2,0.2,2.7-0.7l3.5-6.1C19.9,5.9,19.6,4.6,18.6,4.1L18.6,4.1z M8.9,16.9l4-6.9c0.3-0.5,0.1-1.1-0.4-1.4
		C12,8.4,11.4,8.5,11.2,9l-4,6.9C6.9,16.4,7,17,7.5,17.3S8.6,17.4,8.9,16.9C8.9,16.9,8.9,16.9,8.9,16.9z M7.8,12.8l-0.9-0.5
		c-1-0.6-2.2-0.2-2.7,0.7l-3.5,6.1c-0.6,1-0.2,2.2,0.7,2.7l5.2,3c1,0.6,2.2,0.2,2.7-0.7l3.5-6.1c0.6-1,0.2-2.2-0.7-2.7l-0.9-0.5
		l-1,1.7c0.5,0.3,0.6,0.9,0.4,1.4l-2.5,4.3c-0.3,0.5-0.9,0.6-1.4,0.4l-3.5-2c-0.5-0.3-0.6-0.9-0.4-1.4l2.5-4.3
		c0.3-0.5,0.9-0.6,1.4-0.4c0,0,0,0,0,0L7.8,12.8z"/>
</symbol>
<symbol id="icon-preview" viewBox="0 0 35 25">
	<path d="M17.3,0.8c10,0,17.5,11.7,17.5,11.7s-7.5,11.7-17.5,11.7C6.7,24.1,0.2,12.5,0.2,12.5S6.8,0.8,17.3,0.8z
		 M12.2,12.5c0,2.9,2.3,5.2,5.2,5.2s5.2-2.3,5.2-5.2s-2.3-5.2-5.2-5.2S12.2,9.6,12.2,12.5z M17.4,9.9c1.4,0,2.6,1.2,2.6,2.6
		s-1.2,2.6-2.6,2.6c-1.4,0-2.6-1.2-2.6-2.6S16,9.9,17.4,9.9L17.4,9.9z"/>
</symbol></svg>
