<?xml version="1.0" encoding="utf-8"?>
<!-- Generator: Adobe Illustrator 22.0.1, SVG Export Plug-In . SVG Version: 6.00 Build 0)  -->
<svg version="1.1" id="Layer_1" xmlns="http://www.w3.org/2000/svg" xmlns:xlink="http://www.w3.org/1999/xlink" x="0px" y="0px"
	 viewBox="0 0 49.9 36.4" enable-background="new 0 0 49.9 36.4" xml:space="preserve">
<path id="BisLite" d="M14.6,36.3c2,0,3.9-0.3,5.8-0.8c1.6-0.5,3-1.3,4.3-2.3c1.1-1,2-2.1,2.6-3.5c0.6-1.4,0.9-2.8,0.9-4.3
	c0.1-1.8-0.5-3.6-1.7-5c-1.4-1.5-3.3-2.5-5.3-2.8c1-0.3,1.9-0.8,2.8-1.4c0.7-0.5,1.4-1.1,1.9-1.8c0.5-0.6,0.9-1.4,1.1-2.1
	c0.2-0.8,0.4-1.6,0.4-2.4c0-1.4-0.2-2.8-0.8-4.1c-0.5-1.2-1.4-2.3-2.4-3.1c-1.3-0.9-2.8-1.6-4.3-2C17.8,0.2,15.6,0,13.5,0H0v36.4
	h14.6V36.3z M14.4,20.8c0.9,0,1.8,0.1,2.6,0.3c0.6,0.2,1.2,0.4,1.7,0.8c0.4,0.4,0.7,0.8,0.9,1.3c0.2,0.6,0.3,1.2,0.3,1.8
	c0,0.6-0.1,1.2-0.2,1.7c-0.2,0.6-0.4,1.1-0.8,1.5c-0.5,0.5-1,0.9-1.7,1.1c-0.9,0.3-1.8,0.5-2.7,0.4H8.4v-9.1h6V20.8z M8.5,6.2h4.9
	c0.8,0,1.7,0.1,2.5,0.2c0.6,0.1,1.2,0.4,1.7,0.7c0.5,0.4,0.8,0.8,1,1.4c0.2,0.7,0.3,1.4,0.3,2.2s-0.1,1.5-0.4,2.2
	c-0.3,0.6-0.7,1-1.2,1.4c-0.6,0.4-1.2,0.6-1.9,0.7c-0.8,0.1-1.7,0.2-2.5,0.2H8.5V6.2L8.5,6.2z"/>
<path id="BisLite_1_" fill="#2AACC8" d="M34.3,0.4h-4.8v35.8h20.4v-4.1H34.3V0.4L34.3,0.4z"/>
</svg>
