<?xml version="1.0" standalone="no"?>
<!DOCTYPE svg PUBLIC "-//W3C//DTD SVG 20010904//EN"
 "http://www.w3.org/TR/2001/REC-SVG-20010904/DTD/svg10.dtd">
<svg version="1.0" xmlns="http://www.w3.org/2000/svg"
 width="800.000000pt" height="800.000000pt" viewBox="0 0 800.000000 800.000000"
 preserveAspectRatio="xMidYMid meet">
<metadata>
Created by potrace 1.11, written by Peter Selinger 2001-2013
</metadata>
<g transform="translate(0.000000,800.000000) scale(0.100000,-0.100000)"
fill="#000000" stroke="none">
<path d="M10 3996 l0 -2916 1170 0 c710 0 1170 4 1170 9 0 5 24 9 53 9 56 -2
263 10 295 17 10 2 43 6 73 10 67 8 97 13 174 27 33 6 69 12 80 14 11 2 72 15
135 29 389 90 777 325 1013 615 58 71 155 228 195 315 38 85 95 244 106 297 5
25 13 59 21 100 18 83 27 185 29 342 2 155 -3 202 -35 321 -11 39 -21 78 -24
87 -15 63 -92 208 -160 303 -163 226 -509 440 -810 500 -16 3 -37 8 -45 10 -8
2 -22 4 -30 5 -13 1 43 26 75 33 6 2 36 15 69 30 32 15 60 27 61 27 10 0 189
108 240 145 173 123 312 279 400 448 25 48 42 87 39 87 -4 0 -2 6 4 13 15 18
60 202 76 310 32 214 -4 524 -84 727 -43 110 -120 251 -170 314 -97 121 -242
266 -268 266 -6 0 -12 4 -14 8 -4 11 -157 102 -245 146 -179 89 -408 164 -588
192 -11 2 -33 6 -50 9 -66 12 -166 27 -200 30 -16 2 -59 6 -95 9 -36 4 -83 10
-105 13 -22 3 -606 8 -1297 10 l-1258 4 0 -2915z m2375 1910 c17 -3 55 -7 85
-10 30 -3 66 -8 80 -11 14 -3 39 -8 55 -10 17 -3 75 -28 131 -55 137 -66 196
-131 252 -272 35 -88 56 -336 40 -475 -9 -86 -13 -103 -38 -177 -19 -58 -29
-77 -75 -142 -36 -50 -175 -177 -175 -159 0 3 -13 -3 -30 -15 -16 -12 -30 -18
-30 -14 0 3 -6 2 -12 -3 -18 -14 -105 -41 -153 -48 -22 -3 -51 -8 -65 -10 -14
-3 -52 -7 -85 -10 -33 -3 -80 -8 -105 -11 -25 -4 -49 -6 -55 -6 -24 1 -70 1
-440 -1 l-390 -2 -3 721 -2 721 492 -3 c271 -2 507 -5 523 -8z m-66 -2303 c-4
-24 8 -28 74 -29 125 -1 235 -16 334 -45 100 -29 104 -30 168 -61 78 -38 135
-78 135 -97 0 -6 4 -11 10 -11 5 0 30 -30 54 -67 47 -72 81 -168 94 -270 17
-124 -2 -329 -39 -431 -35 -98 -72 -157 -133 -216 -58 -57 -169 -136 -189
-136 -5 0 -23 -6 -40 -14 -34 -15 -91 -30 -93 -24 0 2 -8 -3 -18 -11 -9 -8
-19 -11 -22 -8 -3 3 -17 1 -31 -4 -57 -21 -121 -23 -683 -24 l-585 0 0 728 0
727 482 0 c266 0 482 -3 482 -7z"/>
<path d="M4735 3980 l0 -2865 1633 -2 1632 -1 0 329 0 329 -1249 0 -1248 0 -1
2503 c0 1376 -1 2518 -1 2538 l-1 35 -383 0 -383 -1 1 -2865z"/>
</g>
</svg>
